PathFileType	3	(X/Y/Z)	squats_1__view2_aligned.trc
DataRate	CameraRate	NumFrames	NumMarkers	Units	OrigDataRate	OrigDataStartFrame	OrigNumFrames
100.0	100.0	16	19	mm	100.0	330	1660
Frame#	Time	pelvis			neck			head			hip_left			hip_right			knee_left			knee_right			ankle_left			ankle_right			heel_left			heel_right			toe_left			toe_right			shoulder_left			shoulder_right			elbow_left			elbow_right			wrist_left			wrist_right			
		X1	Y1	Z1	X2	Y2	Z2	X3	Y3	Z3	X4	Y4	Z4	X5	Y5	Z5	X6	Y6	Z6	X7	Y7	Z7	X8	Y8	Z8	X9	Y9	Z9	X10	Y10	Z10	X11	Y11	Z11	X12	Y12	Z12	X13	Y13	Z13	X14	Y14	Z14	X15	Y15	Z15	X16	Y16	Z16	X17	Y17	Z17	X18	Y18	Z18	X19	Y19	Z19	
330	3.29000	-51.948037	562.605492	157.179382	-36.700270	1001.139426	-133.161316	-52.803429	1083.921615	-278.947529	-125.835024	565.771076	157.359121	21.939021	559.439908	156.999643	-236.593386	435.233035	-213.539657	79.754720	212.658453	-47.708678	-232.964159	157.713308	56.071415	74.530016	-149.495817	74.922962	-230.791622	129.305085	106.482425	68.971713	-188.061419	116.076020	-234.883712	62.537071	-92.446994	85.554275	-243.221056	-86.868737	-200.256676	981.823917	-75.205206	133.254661	966.044091	-101.214027	-346.094858	759.165344	-16.851818	260.710159	728.677361	-83.521925	-356.612231	708.071379	-248.776922	179.168945	682.955371	-300.177199
331	3.30000	-55.014319	557.781140	157.321295	-39.412438	995.806861	-132.942761	-55.979603	1078.239293	-278.600878	-128.845189	561.193502	157.545764	18.816598	554.368778	157.096821	-240.914235	434.813814	-214.443597	75.428363	205.857764	-45.353628	-237.425504	157.724046	55.404101	69.913674	-157.243885	74.996535	-235.206231	129.405711	105.860521	64.421169	-195.954504	116.003829	-240.369239	62.197109	-92.931973	79.855590	-250.930683	-87.111497	-202.961280	976.481396	-74.880122	130.607151	960.935646	-101.125021	-348.951303	754.008923	-16.279255	259.527335	724.383450	-82.919896	-359.862593	703.590609	-248.366654	178.726775	679.467872	-299.835141
332	3.31000	-58.080602	552.956788	157.463208	-42.124606	990.474297	-132.724206	-59.155777	1072.556971	-278.254227	-131.855355	556.615927	157.732408	15.694175	549.297648	157.193999	-245.235084	434.394593	-215.347537	71.102006	199.057075	-42.998579	-241.886848	157.734783	54.736787	65.297333	-164.991953	75.070107	-239.620841	129.506336	105.238617	59.870625	-203.847588	115.931639	-245.854766	61.857147	-93.416953	74.156905	-258.640309	-87.354257	-205.665883	971.138876	-74.555038	127.959641	955.827201	-101.036015	-351.807749	748.852501	-15.706691	258.344510	720.089538	-82.317866	-363.112955	699.109838	-247.956387	178.284606	675.980373	-299.493083
333	3.32000	-61.146885	548.132436	157.605122	-44.836775	985.141732	-132.505651	-62.331951	1066.874650	-277.907576	-134.865521	552.038353	157.919052	12.571752	544.226518	157.291177	-249.555933	433.975372	-216.251478	66.775649	192.256386	-40.643529	-246.348193	157.745521	54.069474	60.680991	-172.740021	75.143679	-244.035450	129.606962	104.616713	55.320081	-211.740673	115.859448	-251.340293	61.517184	-93.901933	68.458220	-266.349936	-87.597018	-208.370486	965.796355	-74.229954	125.312131	950.718757	-100.947008	-354.664194	743.696080	-15.134128	257.161686	715.795627	-81.715836	-366.363316	694.629068	-247.546120	177.842437	672.492874	-299.151024
334	3.33000	-60.780874	545.157983	158.169572	-44.362022	982.016571	-131.810343	-62.260726	1063.837564	-277.061227	-134.501485	549.157592	158.517967	12.939762	541.158373	157.821166	-250.382853	433.876837	-215.982425	66.821847	189.310013	-39.849445	-247.488975	157.592190	53.934222	61.026614	-175.769168	75.389873	-245.178508	129.474372	104.479244	55.755068	-214.736599	116.101000	-252.999479	61.235045	-94.006948	68.343252	-269.683285	-87.309962	-207.883975	962.611939	-73.471967	125.817923	947.772933	-100.255127	-354.577695	740.717514	-14.460554	258.997576	713.445010	-80.820778	-365.512577	692.185449	-247.086129	180.186511	670.707989	-298.535734
335	3.34000	-60.414863	542.183529	158.734022	-43.887269	978.891410	-131.115036	-62.189500	1060.800478	-276.214879	-134.137449	546.276831	159.116882	13.307772	538.090228	158.351154	-251.209773	433.778303	-215.713371	66.868045	186.363641	-39.055360	-248.629757	157.438858	53.798971	61.372237	-178.798314	75.636068	-246.321566	129.341781	104.341775	56.190055	-217.732525	116.342552	-254.658665	60.952906	-94.111964	68.228284	-273.016633	-87.022906	-207.397463	959.427522	-72.713980	126.323716	944.827110	-99.563247	-354.491195	737.738948	-13.786980	260.833467	711.094393	-79.925719	-364.661837	689.741831	-246.626138	182.530586	668.923103	-297.920444
336	3.35000	-60.048851	539.209076	159.298472	-43.412516	975.766249	-130.419728	-62.118274	1057.763392	-275.368530	-133.773413	543.396069	159.715798	13.675782	535.022083	158.881142	-252.036693	433.679768	-215.444318	66.914243	183.417268	-38.261276	-249.770538	157.285527	53.663720	61.717859	-181.827461	75.882262	-247.464624	129.209191	104.204305	56.625041	-220.728451	116.584104	-256.317850	60.670767	-94.216980	68.113316	-276.349982	-86.735850	-206.910952	956.243106	-71.955993	126.829508	941.881286	-98.871366	-354.404696	734.760382	-13.113406	262.669357	708.743776	-79.030661	-363.811097	687.298212	-246.166147	184.874660	667.138218	-297.305154
337	3.36000	-59.682840	536.234623	159.862923	-42.937764	972.641088	-129.724420	-62.047048	1054.726307	-274.522182	-133.409377	540.515308	160.314713	14.043791	531.953938	159.411131	-252.863613	433.581233	-215.175265	66.960440	180.470896	-37.467191	-250.911320	157.132195	53.528469	62.063482	-184.856607	76.128456	-248.607683	129.076601	104.066836	57.060028	-223.724377	116.825657	-257.977036	60.388628	-94.321995	67.998349	-279.683331	-86.448794	-206.424440	953.058690	-71.198006	127.335301	938.935463	-98.179485	-354.318197	731.781816	-12.439832	264.505247	706.393159	-78.135602	-362.960358	684.854594	-245.706156	187.218734	665.353332	-296.689864
338	3.37000	-59.316829	533.260170	160.427373	-42.463011	969.515928	-129.029112	-61.975822	1051.689221	-273.675833	-133.045341	537.634547	160.913628	14.411801	528.885793	159.941119	-253.690533	433.482698	-214.906211	67.006638	177.524523	-36.673107	-252.052102	156.978864	53.393217	62.409105	-187.885754	76.374651	-249.750741	128.944010	103.929367	57.495015	-226.720303	117.067209	-259.636222	60.106489	-94.427011	67.883381	-283.016680	-86.161739	-205.937928	949.874274	-70.440019	127.841093	935.989639	-97.487604	-354.231698	728.803250	-11.766257	266.341138	704.042541	-77.240543	-362.109618	682.410975	-245.246165	189.562809	663.568446	-296.074574
339	3.38000	-58.950818	530.285716	160.991823	-41.988258	966.390767	-128.333805	-61.904596	1048.652135	-272.829485	-132.681306	534.753786	161.512544	14.779811	525.817648	160.471108	-254.517453	433.384164	-214.637158	67.052836	174.578151	-35.879022	-253.192884	156.825532	53.257966	62.754728	-190.914901	76.620845	-250.893799	128.811420	103.791897	57.930002	-229.716228	117.308761	-261.295407	59.824350	-94.532027	67.768413	-286.350029	-85.874683	-205.451417	946.689858	-69.682032	128.346886	933.043816	-96.795724	-354.145199	725.824684	-11.092683	268.177028	701.691924	-76.345485	-361.258879	679.967357	-244.786174	191.906883	661.783561	-295.459285
340	3.39000	-58.584806	527.311263	161.556273	-41.513505	963.265606	-127.638497	-61.833371	1045.615050	-271.983136	-132.317270	531.873025	162.111459	15.147821	522.749503	161.001096	-255.344372	433.285629	-214.368105	67.099034	171.631778	-35.084938	-254.333666	156.672201	53.122715	63.100350	-193.944047	76.867040	-252.036857	128.678829	103.654428	58.364988	-232.712154	117.550313	-262.954593	59.542211	-94.637042	67.653446	-289.683378	-85.587627	-204.964905	943.505441	-68.924045	128.852678	930.097992	-96.103843	-354.058700	722.846118	-10.419109	270.012919	699.341307	-75.450426	-360.408139	677.523738	-244.326183	194.250957	659.998675	-294.843995
341	3.40000	-58.218795	524.336810	162.120723	-41.038752	960.140445	-126.943189	-61.762145	1042.577964	-271.136788	-131.953234	528.992264	162.710375	15.515830	519.681357	161.531085	-256.171292	433.187094	-214.099052	67.145232	168.685406	-34.290854	-255.474448	156.518869	52.987464	63.445973	-196.973194	77.113234	-253.179915	128.546239	103.516958	58.799975	-235.708080	117.791865	-264.613778	59.260072	-94.742058	67.538478	-293.016727	-85.300571	-204.478393	940.321025	-68.166058	129.358471	927.152169	-95.411962	-353.972200	719.867552	-9.745535	271.848809	696.990690	-74.555368	-359.557399	675.080120	-243.866192	196.595032	658.213790	-294.228705
342	3.41000	-57.852784	521.362357	162.685174	-40.564000	957.015284	-126.247881	-61.690919	1039.540878	-270.290439	-131.589198	526.111502	163.309290	15.883840	516.613212	162.061073	-256.998212	433.088559	-213.829998	67.191430	165.739033	-33.496769	-256.615230	156.365538	52.852212	63.791596	-200.002341	77.359428	-254.322973	128.413649	103.379489	59.234962	-238.704006	118.033417	-266.272964	58.977933	-94.847074	67.423510	-296.350076	-85.013516	-203.991882	937.136609	-67.408071	129.864263	924.206346	-94.720081	-353.885701	716.888986	-9.071961	273.684700	694.640073	-73.660309	-358.706660	672.636501	-243.406201	198.939106	656.428904	-293.613415
343	3.42000	-57.486773	518.387903	163.249624	-40.089247	953.890123	-125.552573	-61.619693	1036.503792	-269.444091	-131.225162	523.230741	163.908205	16.251850	513.545067	162.591061	-257.825132	432.990025	-213.560945	67.237627	162.792661	-32.702685	-257.756011	156.212206	52.716961	64.137219	-203.031487	77.605623	-255.466031	128.281058	103.242020	59.669949	-241.699932	118.274969	-267.932150	58.695794	-94.952089	67.308542	-299.683425	-84.726460	-203.505370	933.952193	-66.650084	130.370056	921.260522	-94.028201	-353.799202	713.910421	-8.398386	275.520590	692.289456	-72.765250	-357.855920	670.192883	-242.946210	201.283181	654.644019	-292.998125
344	3.43000	-54.203158	517.981861	164.452184	-36.867586	953.552473	-124.531427	-58.342327	1036.471212	-268.286836	-127.949276	522.738435	165.050812	19.543169	513.225288	163.853575	-254.860100	433.285827	-212.275910	71.336808	166.353433	-34.515109	-255.142966	156.022835	53.286097	68.174869	-198.325430	77.799301	-252.928446	127.985331	103.743313	63.693598	-236.874703	118.583311	-264.876544	58.836526	-94.539558	72.080749	-294.905244	-84.269494	-200.295043	933.377488	-65.650536	133.622023	920.703535	-92.943610	-350.471539	712.991255	-8.044897	278.387565	691.508827	-72.078473	-355.086570	669.798868	-242.705969	204.265465	654.462713	-292.432516
345	3.44000	-50.919544	517.575819	165.654745	-33.645926	953.214823	-123.510281	-55.064961	1036.438632	-267.129581	-124.673390	522.246129	166.193420	22.834489	512.905509	165.116088	-251.895068	433.581629	-210.990876	75.435989	169.914205	-36.327533	-252.529920	155.833464	53.855232	72.212520	-193.619372	77.992978	-250.390860	127.689603	104.244605	67.717247	-232.049474	118.891653	-261.820938	58.977258	-94.127027	76.852956	-290.127063	-83.812528	-197.084716	932.802784	-64.650989	136.873990	920.146548	-91.859020	-347.143875	712.072089	-7.691408	281.254541	690.728197	-71.391696	-352.317220	669.404853	-242.465729	207.247750	654.281407	-291.866906
